# xmcd
#
# Track frame offsets:
# 150
# 19739
# 36636
# 56345
# 76149
# 89867
# 108224
# 128447
# 144452
# 157810
# 180182
# 198075
# 214863
# 234837
# 253864
# 267488
# 279402
# 296438
# 311240
#
# Disc length: 4438 seconds
#
#
# Revision: 0
# Processed by: cddbd v1.5.1PL0 Copyright (c) Steve Scherf et al.
# Submitted via: FreeRIP 2.60 
#
DISCID=05115413
DTITLE=Various Artist - Best Of the Green Mountain Blues - Volume 4
DYEAR=1900
DGENRE=blues
TTITLE0=Seth Yacovone Blues Band - Keep On Trying
TTITLE1=Red Neck Aliens - Love You So
TTITLE2=Nobby Reed Project - It's My Soul
TTITLE3=Hugh Pool - The Doors Are All Open
TTITLE4=Blue Fox - Willie Bought A T-Bird
TTITLE5=Christy Bluhm and Vibrokings - 1st Time
TTITLE6=Stockwell Brothers - Beneath The Paint
TTITLE7=Bloozotomy - Ain't Dead Yet
TTITLE8=Laura Simon - All I Need
TTITLE9=Strangefolk - Blues Time
TTITLE10=Augusta Brown - When I Fall
TTITLE11=Blues2Ya - Down The Drain Blues
TTITLE12=7th Sons - Back In The Blues Again
TTITLE13=Gatorz - Breakdown Blues
TTITLE14=Rockhoppers - Two Timin' Woman
TTITLE15=Big Guy Lasro - What I Need
TTITLE16=John Tower Group - Of You
TTITLE17=Julti Tiller Band - Lyin' To You
TTITLE18=Unknown Blues Band - The Stumble
EXTD=Proceeds go to camp Ta-Kum-Ta, a summer camp for children with cancer.\n
EXTT0=
EXTT1=
EXTT2=
EXTT3=
EXTT4=
EXTT5=
EXTT6=
EXTT7=
EXTT8=
EXTT9=
EXTT10=
EXTT11=
EXTT12=
EXTT13=
EXTT14=
EXTT15=
EXTT16=
EXTT17=
EXTT18=
PLAYORDER=
